<mxfile host="app.diagrams.net" modified="2020-08-03T10:53:26.252Z" agent="5.0 (Macintosh; Intel Mac OS X 10_15_5) AppleWebKit/605.1.15 (KHTML, like Gecko) Version/13.1.1 Safari/605.1.15" etag="2qWa9N443CBz1oGkWhE_" version="13.5.8" type="github">
  <diagram id="_9Aej2VgiJguUkMObO0f" name="Page-1">
    <mxGraphModel dx="1080" dy="819" grid="1" gridSize="10" guides="1" tooltips="1" connect="1" arrows="1" fold="1" page="1" pageScale="1" pageWidth="827" pageHeight="1169" math="0" shadow="0">
      <root>
        <mxCell id="0" />
        <mxCell id="1" parent="0" />
        <mxCell id="zrseVhVRHL06Tp-hcol8-1" value="管理网" style="rounded=0;whiteSpace=wrap;html=1;" parent="1" vertex="1">
          <mxGeometry x="90" y="150" width="120" height="60" as="geometry" />
        </mxCell>
        <mxCell id="zrseVhVRHL06Tp-hcol8-2" value="计算内网" style="rounded=0;whiteSpace=wrap;html=1;" parent="1" vertex="1">
          <mxGeometry x="90" y="220" width="120" height="60" as="geometry" />
        </mxCell>
        <mxCell id="zrseVhVRHL06Tp-hcol8-4" value="cn2网" style="rounded=0;whiteSpace=wrap;html=1;" parent="1" vertex="1">
          <mxGeometry x="90" y="290" width="120" height="60" as="geometry" />
        </mxCell>
        <mxCell id="zrseVhVRHL06Tp-hcol8-5" value="交换机管理网" style="rounded=0;whiteSpace=wrap;html=1;" parent="1" vertex="1">
          <mxGeometry x="90" y="360" width="120" height="60" as="geometry" />
        </mxCell>
        <mxCell id="zrseVhVRHL06Tp-hcol8-6" value="" style="endArrow=none;html=1;" parent="1" edge="1">
          <mxGeometry width="50" height="50" relative="1" as="geometry">
            <mxPoint x="210" y="180" as="sourcePoint" />
            <mxPoint x="830" y="180" as="targetPoint" />
          </mxGeometry>
        </mxCell>
        <mxCell id="zrseVhVRHL06Tp-hcol8-7" value="" style="endArrow=none;html=1;" parent="1" edge="1">
          <mxGeometry width="50" height="50" relative="1" as="geometry">
            <mxPoint x="210" y="249.5" as="sourcePoint" />
            <mxPoint x="880" y="250" as="targetPoint" />
          </mxGeometry>
        </mxCell>
        <mxCell id="zrseVhVRHL06Tp-hcol8-8" value="" style="endArrow=none;html=1;" parent="1" edge="1">
          <mxGeometry width="50" height="50" relative="1" as="geometry">
            <mxPoint x="210" y="319.5" as="sourcePoint" />
            <mxPoint x="830" y="320" as="targetPoint" />
          </mxGeometry>
        </mxCell>
        <mxCell id="zrseVhVRHL06Tp-hcol8-9" value="" style="endArrow=none;html=1;" parent="1" edge="1">
          <mxGeometry width="50" height="50" relative="1" as="geometry">
            <mxPoint x="210" y="389.5" as="sourcePoint" />
            <mxPoint x="830" y="390" as="targetPoint" />
          </mxGeometry>
        </mxCell>
        <mxCell id="zrseVhVRHL06Tp-hcol8-10" value="裸机管理服务" style="rounded=0;whiteSpace=wrap;html=1;" parent="1" vertex="1">
          <mxGeometry x="230" y="480" width="120" height="60" as="geometry" />
        </mxCell>
        <mxCell id="zrseVhVRHL06Tp-hcol8-11" value="Neutron server服务" style="rounded=0;whiteSpace=wrap;html=1;" parent="1" vertex="1">
          <mxGeometry x="390" y="480" width="120" height="60" as="geometry" />
        </mxCell>
        <mxCell id="zrseVhVRHL06Tp-hcol8-12" value="裸机" style="rounded=0;whiteSpace=wrap;html=1;" parent="1" vertex="1">
          <mxGeometry x="560" y="480" width="120" height="60" as="geometry" />
        </mxCell>
        <mxCell id="zrseVhVRHL06Tp-hcol8-14" value="" style="endArrow=classic;html=1;" parent="1" edge="1">
          <mxGeometry width="50" height="50" relative="1" as="geometry">
            <mxPoint x="240" y="480" as="sourcePoint" />
            <mxPoint x="240" y="180" as="targetPoint" />
          </mxGeometry>
        </mxCell>
        <mxCell id="zrseVhVRHL06Tp-hcol8-15" value="" style="endArrow=classic;html=1;" parent="1" edge="1">
          <mxGeometry width="50" height="50" relative="1" as="geometry">
            <mxPoint x="280" y="480" as="sourcePoint" />
            <mxPoint x="280" y="250" as="targetPoint" />
          </mxGeometry>
        </mxCell>
        <mxCell id="zrseVhVRHL06Tp-hcol8-16" value="" style="endArrow=classic;html=1;" parent="1" edge="1">
          <mxGeometry width="50" height="50" relative="1" as="geometry">
            <mxPoint x="320" y="480" as="sourcePoint" />
            <mxPoint x="320" y="320" as="targetPoint" />
          </mxGeometry>
        </mxCell>
        <mxCell id="zrseVhVRHL06Tp-hcol8-18" value="" style="endArrow=classic;html=1;" parent="1" edge="1">
          <mxGeometry width="50" height="50" relative="1" as="geometry">
            <mxPoint x="410" y="480" as="sourcePoint" />
            <mxPoint x="410" y="180" as="targetPoint" />
          </mxGeometry>
        </mxCell>
        <mxCell id="zrseVhVRHL06Tp-hcol8-19" value="" style="endArrow=classic;html=1;" parent="1" edge="1">
          <mxGeometry width="50" height="50" relative="1" as="geometry">
            <mxPoint x="440" y="480" as="sourcePoint" />
            <mxPoint x="440" y="390" as="targetPoint" />
          </mxGeometry>
        </mxCell>
        <mxCell id="zrseVhVRHL06Tp-hcol8-20" value="" style="endArrow=classic;html=1;entryX=0.5;entryY=1;entryDx=0;entryDy=0;" parent="1" target="zrseVhVRHL06Tp-hcol8-21" edge="1">
          <mxGeometry width="50" height="50" relative="1" as="geometry">
            <mxPoint x="619.5" y="480" as="sourcePoint" />
            <mxPoint x="619.5" y="250" as="targetPoint" />
          </mxGeometry>
        </mxCell>
        <mxCell id="zrseVhVRHL06Tp-hcol8-21" value="计算内网交换机" style="rounded=0;whiteSpace=wrap;html=1;" parent="1" vertex="1">
          <mxGeometry x="560" y="220" width="120" height="60" as="geometry" />
        </mxCell>
        <mxCell id="zrseVhVRHL06Tp-hcol8-22" value="" style="endArrow=classic;html=1;" parent="1" edge="1">
          <mxGeometry width="50" height="50" relative="1" as="geometry">
            <mxPoint x="660" y="480" as="sourcePoint" />
            <mxPoint x="660" y="320" as="targetPoint" />
          </mxGeometry>
        </mxCell>
        <mxCell id="zrseVhVRHL06Tp-hcol8-23" value="裸机ilo、bmc&lt;br&gt;管理电源、&lt;br&gt;启动项等" style="edgeLabel;html=1;align=center;verticalAlign=middle;resizable=0;points=[];" parent="zrseVhVRHL06Tp-hcol8-22" vertex="1" connectable="0">
          <mxGeometry x="-0.4" relative="1" as="geometry">
            <mxPoint x="30" y="-2" as="offset" />
          </mxGeometry>
        </mxCell>
        <mxCell id="zrseVhVRHL06Tp-hcol8-24" value="" style="edgeStyle=segmentEdgeStyle;endArrow=classic;html=1;" parent="1" edge="1">
          <mxGeometry width="50" height="50" relative="1" as="geometry">
            <mxPoint x="830" y="390" as="sourcePoint" />
            <mxPoint x="880" y="250" as="targetPoint" />
          </mxGeometry>
        </mxCell>
        <mxCell id="zrseVhVRHL06Tp-hcol8-27" value="" style="endArrow=none;html=1;fillColor=#fad9d5;strokeColor=#ae4132;rounded=1;" parent="1" edge="1">
          <mxGeometry width="50" height="50" relative="1" as="geometry">
            <mxPoint x="450" y="480" as="sourcePoint" />
            <mxPoint x="450" y="380" as="targetPoint" />
          </mxGeometry>
        </mxCell>
        <mxCell id="zrseVhVRHL06Tp-hcol8-28" value="" style="endArrow=none;html=1;fillColor=#fad9d5;strokeColor=#ae4132;rounded=1;" parent="1" edge="1">
          <mxGeometry width="50" height="50" relative="1" as="geometry">
            <mxPoint x="860" y="380" as="sourcePoint" />
            <mxPoint x="450" y="380" as="targetPoint" />
          </mxGeometry>
        </mxCell>
        <mxCell id="zrseVhVRHL06Tp-hcol8-29" value="" style="endArrow=none;html=1;fillColor=#fad9d5;strokeColor=#ae4132;rounded=1;" parent="1" edge="1">
          <mxGeometry width="50" height="50" relative="1" as="geometry">
            <mxPoint x="860" y="290" as="sourcePoint" />
            <mxPoint x="860" y="380" as="targetPoint" />
          </mxGeometry>
        </mxCell>
        <mxCell id="zrseVhVRHL06Tp-hcol8-30" value="" style="endArrow=none;html=1;fillColor=#fad9d5;strokeColor=#ae4132;rounded=1;" parent="1" edge="1">
          <mxGeometry width="50" height="50" relative="1" as="geometry">
            <mxPoint x="620" y="290" as="sourcePoint" />
            <mxPoint x="860" y="290" as="targetPoint" />
          </mxGeometry>
        </mxCell>
        <mxCell id="zrseVhVRHL06Tp-hcol8-31" value="" style="shape=singleArrow;whiteSpace=wrap;html=1;fillColor=#AE4132;" parent="1" vertex="1">
          <mxGeometry x="510" y="370" width="60" height="10" as="geometry" />
        </mxCell>
        <mxCell id="zrseVhVRHL06Tp-hcol8-34" value="" style="shape=singleArrow;direction=west;whiteSpace=wrap;html=1;fillColor=#AE4132;" parent="1" vertex="1">
          <mxGeometry x="710" y="280" width="67" height="10" as="geometry" />
        </mxCell>
        <mxCell id="zrseVhVRHL06Tp-hcol8-35" value="" style="shape=singleArrow;whiteSpace=wrap;html=1;fillColor=#AE4132;" parent="1" vertex="1">
          <mxGeometry x="713.5" y="370" width="60" height="10" as="geometry" />
        </mxCell>
        <mxCell id="zrseVhVRHL06Tp-hcol8-36" value="&lt;font color=&quot;#ae4132&quot;&gt;修改交换机口vlan&lt;/font&gt;" style="text;html=1;strokeColor=none;fillColor=none;align=center;verticalAlign=middle;whiteSpace=wrap;rounded=0;" parent="1" vertex="1">
          <mxGeometry x="630" y="290" width="100" height="20" as="geometry" />
        </mxCell>
        <mxCell id="zrseVhVRHL06Tp-hcol8-38" value="" style="endArrow=none;dashed=1;html=1;fillColor=#b0e3e6;strokeColor=#0e8088;" parent="1" edge="1">
          <mxGeometry width="50" height="50" relative="1" as="geometry">
            <mxPoint x="600" y="290" as="sourcePoint" />
            <mxPoint x="480" y="290" as="targetPoint" />
          </mxGeometry>
        </mxCell>
        <mxCell id="zrseVhVRHL06Tp-hcol8-39" value="" style="endArrow=none;dashed=1;html=1;fillColor=#b0e3e6;strokeColor=#0e8088;entryX=0.325;entryY=0.033;entryDx=0;entryDy=0;entryPerimeter=0;" parent="1" target="zrseVhVRHL06Tp-hcol8-12" edge="1">
          <mxGeometry width="50" height="50" relative="1" as="geometry">
            <mxPoint x="600" y="290" as="sourcePoint" />
            <mxPoint x="600" y="470" as="targetPoint" />
          </mxGeometry>
        </mxCell>
        <mxCell id="zrseVhVRHL06Tp-hcol8-37" value="" style="endArrow=none;dashed=1;html=1;fillColor=#b0e3e6;strokeColor=#0e8088;shadow=0;sketch=0;" parent="1" edge="1">
          <mxGeometry width="50" height="50" relative="1" as="geometry">
            <mxPoint x="480" y="480" as="sourcePoint" />
            <mxPoint x="480" y="290" as="targetPoint" />
          </mxGeometry>
        </mxCell>
        <mxCell id="zrseVhVRHL06Tp-hcol8-41" value="" style="shape=singleArrow;direction=north;whiteSpace=wrap;html=1;fillColor=#0E8088;" parent="1" vertex="1">
          <mxGeometry x="480" y="400" width="10" height="60" as="geometry" />
        </mxCell>
        <mxCell id="zrseVhVRHL06Tp-hcol8-43" value="" style="shape=singleArrow;whiteSpace=wrap;html=1;fillColor=#0E8088;" parent="1" vertex="1">
          <mxGeometry x="500" y="295" width="60" height="10" as="geometry" />
        </mxCell>
        <mxCell id="zrseVhVRHL06Tp-hcol8-44" value="" style="shape=singleArrow;direction=south;whiteSpace=wrap;html=1;fillColor=#0E8088;" parent="1" vertex="1">
          <mxGeometry x="590" y="400" width="10" height="60" as="geometry" />
        </mxCell>
        <mxCell id="zrseVhVRHL06Tp-hcol8-45" value="&lt;font color=&quot;#ae4132&quot;&gt;原来方式&lt;/font&gt;" style="text;html=1;strokeColor=none;fillColor=none;align=center;verticalAlign=middle;whiteSpace=wrap;rounded=0;" parent="1" vertex="1">
          <mxGeometry x="773.5" y="360" width="56.5" height="20" as="geometry" />
        </mxCell>
        <mxCell id="zrseVhVRHL06Tp-hcol8-46" value="&lt;font color=&quot;#0e8088&quot;&gt;智能网卡方式&lt;/font&gt;" style="text;html=1;strokeColor=none;fillColor=none;align=center;verticalAlign=middle;whiteSpace=wrap;rounded=0;" parent="1" vertex="1">
          <mxGeometry x="470" y="260" width="90" height="30" as="geometry" />
        </mxCell>
        <mxCell id="zrseVhVRHL06Tp-hcol8-48" value="" style="rounded=0;whiteSpace=wrap;html=1;fillColor=#FFFFFF;" parent="1" vertex="1">
          <mxGeometry x="520" y="600" width="300" height="90" as="geometry" />
        </mxCell>
        <mxCell id="zrseVhVRHL06Tp-hcol8-49" value="OVS" style="rounded=0;whiteSpace=wrap;html=1;fillColor=#FFFFFF;" parent="1" vertex="1">
          <mxGeometry x="550" y="630" width="100" height="30" as="geometry" />
        </mxCell>
        <mxCell id="zrseVhVRHL06Tp-hcol8-51" value="" style="endArrow=none;html=1;shadow=0;" parent="1" edge="1">
          <mxGeometry width="50" height="50" relative="1" as="geometry">
            <mxPoint x="600" y="630" as="sourcePoint" />
            <mxPoint x="600" y="570" as="targetPoint" />
          </mxGeometry>
        </mxCell>
        <mxCell id="zrseVhVRHL06Tp-hcol8-53" value="" style="endArrow=none;dashed=1;html=1;shadow=0;strokeColor=#0E8088;" parent="1" edge="1">
          <mxGeometry width="50" height="50" relative="1" as="geometry">
            <mxPoint x="590" y="630" as="sourcePoint" />
            <mxPoint x="590" y="570" as="targetPoint" />
          </mxGeometry>
        </mxCell>
        <mxCell id="zrseVhVRHL06Tp-hcol8-54" value="&lt;font color=&quot;#0e8088&quot;&gt;管理VLAN&lt;/font&gt;" style="text;html=1;strokeColor=none;fillColor=none;align=center;verticalAlign=middle;whiteSpace=wrap;rounded=0;" parent="1" vertex="1">
          <mxGeometry x="510" y="565" width="80" height="20" as="geometry" />
        </mxCell>
        <mxCell id="zrseVhVRHL06Tp-hcol8-63" value="" style="curved=1;endArrow=classic;html=1;shadow=0;strokeColor=#0E8088;" parent="1" edge="1">
          <mxGeometry width="50" height="50" relative="1" as="geometry">
            <mxPoint x="600" y="480" as="sourcePoint" />
            <mxPoint x="510" y="600" as="targetPoint" />
            <Array as="points">
              <mxPoint x="570" y="450" />
              <mxPoint x="500" y="560" />
            </Array>
          </mxGeometry>
        </mxCell>
        <mxCell id="zrseVhVRHL06Tp-hcol8-64" value="" style="rounded=0;whiteSpace=wrap;html=1;fillColor=#FFFFFF;" parent="1" vertex="1">
          <mxGeometry x="520" y="690" width="300" height="150" as="geometry" />
        </mxCell>
        <mxCell id="zrseVhVRHL06Tp-hcol8-65" value="" style="shape=flexArrow;endArrow=classic;startArrow=classic;html=1;shadow=0;strokeColor=#0E8088;width=4;endSize=5;startWidth=10;startSize=5;endWidth=10;" parent="1" edge="1">
          <mxGeometry width="50" height="50" relative="1" as="geometry">
            <mxPoint x="450" y="850" as="sourcePoint" />
            <mxPoint x="450" y="790" as="targetPoint" />
          </mxGeometry>
        </mxCell>
        <mxCell id="zrseVhVRHL06Tp-hcol8-66" value="" style="shape=flexArrow;endArrow=classic;startArrow=classic;html=1;shadow=0;strokeColor=#0E8088;width=4;endSize=5;startWidth=10;startSize=5;endWidth=10;" parent="1" edge="1">
          <mxGeometry width="50" height="50" relative="1" as="geometry">
            <mxPoint x="570" y="720" as="sourcePoint" />
            <mxPoint x="570" y="660" as="targetPoint" />
          </mxGeometry>
        </mxCell>
        <mxCell id="zrseVhVRHL06Tp-hcol8-68" value="" style="shape=flexArrow;endArrow=classic;startArrow=classic;html=1;shadow=0;strokeColor=#0E8088;width=4;endSize=5;startWidth=10;startSize=5;endWidth=10;" parent="1" edge="1">
          <mxGeometry width="50" height="50" relative="1" as="geometry">
            <mxPoint x="594.5" y="720" as="sourcePoint" />
            <mxPoint x="594.5" y="660" as="targetPoint" />
          </mxGeometry>
        </mxCell>
        <mxCell id="zrseVhVRHL06Tp-hcol8-69" value="" style="shape=flexArrow;endArrow=classic;startArrow=classic;html=1;shadow=0;strokeColor=#0E8088;width=4;endSize=5;startWidth=10;startSize=5;endWidth=10;" parent="1" edge="1">
          <mxGeometry width="50" height="50" relative="1" as="geometry">
            <mxPoint x="619.5" y="720" as="sourcePoint" />
            <mxPoint x="619.5" y="660" as="targetPoint" />
          </mxGeometry>
        </mxCell>
        <mxCell id="zrseVhVRHL06Tp-hcol8-70" value="&lt;span style=&quot;color: rgb(14 , 128 , 136)&quot;&gt;修改这里的VLAN&lt;/span&gt;&lt;br style=&quot;color: rgb(14 , 128 , 136)&quot;&gt;&lt;br style=&quot;color: rgb(14 , 128 , 136)&quot;&gt;&lt;span style=&quot;color: rgb(14 , 128 , 136)&quot;&gt;ovs上的port&lt;/span&gt;&lt;br style=&quot;color: rgb(14 , 128 , 136)&quot;&gt;&lt;span style=&quot;color: rgb(14 , 128 , 136)&quot;&gt;x86 host上的网卡&lt;/span&gt;&lt;br style=&quot;color: rgb(14 , 128 , 136)&quot;&gt;&lt;span style=&quot;color: rgb(14 , 128 , 136)&quot;&gt;x86 host上的VF或PF&lt;/span&gt;" style="rounded=0;whiteSpace=wrap;html=1;fillColor=#FFFFFF;" parent="1" vertex="1">
          <mxGeometry x="540" y="720" width="120" height="80" as="geometry" />
        </mxCell>
        <mxCell id="zrseVhVRHL06Tp-hcol8-72" value="ARM &lt;br&gt;LINUX" style="text;html=1;strokeColor=none;fillColor=none;align=center;verticalAlign=middle;whiteSpace=wrap;rounded=0;" parent="1" vertex="1">
          <mxGeometry x="690" y="635" width="80" height="20" as="geometry" />
        </mxCell>
        <mxCell id="zrseVhVRHL06Tp-hcol8-73" value="x86 Host&lt;br&gt;Linux or Windows" style="text;html=1;strokeColor=none;fillColor=none;align=center;verticalAlign=middle;whiteSpace=wrap;rounded=0;" parent="1" vertex="1">
          <mxGeometry x="690" y="720" width="100" height="30" as="geometry" />
        </mxCell>
      </root>
    </mxGraphModel>
  </diagram>
</mxfile>
